# xmcd CD database file
#
# Track frame offsets:
#	150
#	22223
#	45361
#	69912
#	95568
#	120744
#	144462
#	168012
#	190949
#	218029
#
# Disc length: 3212 seconds
#
# Revision: 0
# Processed by: cddbd v1.5.2PL0 Copyright (c) Steve Scherf et al.
# Submitted via: CDex 1.51
#
DISCID=850c8a0a
DTITLE=Diane Arkenstone - Following The Equator
DYEAR=2006
DGENRE=New Age
TTITLE0=Marajo
TTITLE1=Jubba River
TTITLE2=Bintang
TTITLE3=Jinja
TTITLE4=The Spice Trader
TTITLE5=The Monkey Forest
TTITLE6=Island Of The Spirits
TTITLE7=Masai Mara
TTITLE8=Mountains Of The Moon
TTITLE9=Edge Of The World
EXTD=YEAR: 2006
EXTT0=
EXTT1=
EXTT2=
EXTT3=
EXTT4=
EXTT5=
EXTT6=
EXTT7=
EXTT8=
EXTT9=
PLAYORDER=
